{"title":"22 Jump Street 2014 CAM NEW AUDIO x264 AC3-MiLLENiUM","uid":10411691,"size":1320582625,"categoryP":"video","categoryS":"movies","magnet":"?xt=urn:btih:ad8c443c7fae3ced925bfc9133f9d7b52112fcab&amp;dn=22+Jump+Street+2014+CAM+NEW+AUDIO+x264+AC3-MiLLENiUM&amp;tr=udp%3A%2F%2Ftracker.openbittorrent.com%3A80&amp;tr=udp%3A%2F%2Fopen.demonii.com%3A1337&amp;tr=udp%3A%2F%2Ftracker.coppersurfer.tk%3A6969&amp;tr=udp%3A%2F%2Fexodus.desync.com%3A6969","seeders":5,"leechers":1,"uploader":"Xetron","files":5,"time":1403546819,"description":" &lt;a href=&quot;http://s30.postimg.org/ndgkc9ey9/MV5_BMTcw_Nz_Ax_MDU1_M15_BMl5_Ban_Bn_Xk_Ft_ZTgw_NDE2_NTU1_MTE.jpg&quot; rel=&quot;nofollow&quot; target=&quot;_NEW&quot;&gt;http://s30.postimg.org/ndgkc9ey9/MV5_BMTcw_Nz_Ax_MDU1_M15_BMl5_Ban_Bn_Xk_Ft_ZTgw_NDE2_NTU1_MTE.jpg&lt;/a&gt;\n       \n22 Jump Street 2014 CAM NEW AUDIO x264 AC3-MiLLENiUM                \n\nGeneral\n\nSource...............: 720p MPG File / Audio - VOSE[THANKS]\nIMDb Information.... : http://www.imdb.com/title/tt2294449/\nSample Included......: yes\n\n[color=red]NOTES[/color]: Got passed the 720p for this, rotated, fixed perspective especially in the top left after rotating, cropped the excess, resized, then went to work on it :) Got the colors better, adjusted Saturation, levels, contrast, Light rays, sharpen. Audio is much nicer.\n\nGeneral\nComplete name                            : 22 Jump Street 2014 CAM NEW AUDIO x264 AC3-MiLLENiUM.mkv\nFormat                                   : Matroska\nFormat version                           : Version 2\nFile size                                : 1.18 GiB\nDuration                                 : 1h 39mn\nOverall bit rate mode                    : Variable\nOverall bit rate                         : 1 695 Kbps\nEncoded date                             : UTC 2014-06-22 23:17:12\nWriting application                      : mkvmerge v7.0.0 ('Where We Going') 32bit built on Jun  9 2014 15:08:34\nWriting library                          : libebml v1.3.0 + libmatroska v1.4.1\n\nVideo\nID                                       : 1\nFormat                                   : AVC\nFormat/Info                              : Advanced Video Codec\nFormat profile                           : &lt;a class=&quot;__cf_email__&quot; href=&quot;/cdn-cgi/l/email-protection&quot; data-cfemail=&quot;a1e9c8c6c9e1ed958f90&quot;&gt;[email&amp;#160;protected]&lt;/a&gt;&lt;script cf-hash='f9e31' type=&quot;text/javascript&quot;&gt;\n/* &lt;![CDATA[ */!function(){try{var t=&quot;currentScript&quot;in document?document.currentScript:function(){for(var t=document.getElementsByTagName(&quot;script&quot;),e=t.length;e--;)if(t[e].getAttribute(&quot;cf-hash&quot;))return t[e]}();if(t&amp;&amp;t.previousSibling){var e,r,n,i,c=t.previousSibling,a=c.getAttribute(&quot;data-cfemail&quot;);if(a){for(e=&quot;&quot;,r=parseInt(a.substr(0,2),16),n=2;a.length-n;n+=2)i=parseInt(a.substr(n,2),16)^r,e+=String.fromCharCode(i);e=document.createTextNode(e),c.parentNode.replaceChild(e,c)}}}catch(u){}}();/* ]]&gt; */&lt;/script&gt;\nFormat settings, CABAC                   : Yes\nFormat settings, ReFrames                : 3 frames\nCodec ID                                 : V_MPEG4/ISO/AVC\nDuration                                 : 1h 39mn\nBit rate mode                            : Variable\nBit rate                                 : 1 406 Kbps\nMaximum bit rate                         : 40.0 Mbps\nWidth                                    : 720 pixels\nHeight                                   : 320 pixels\nDisplay aspect ratio                     : 2.25:1\nFrame rate mode                          : Constant\nFrame rate                               : 29.970 fps\nColor space                              : YUV\nChroma subsampling                       : 4:2:0\nBit depth                                : 8 bits\nScan type                                : Progressive\nBits/(Pixel*Frame)                       : 0.204\nStream size                              : 1 003 MiB (83%)\nWriting library                          : x264 core 142 r2431 ac76440\n\nAudio\nID                                       : 2\nFormat                                   : AC-3\nFormat/Info                              : Audio Coding 3\nMode extension                           : CM (complete main)\nFormat settings, Endianness              : Big\nCodec ID                                 : A_AC3\nDuration                                 : 1h 39mn\nBit rate mode                            : Constant\nBit rate                                 : 256 Kbps\nChannel(s)                               : 2 channels\nChannel positions                        : Front: L R\nSampling rate                            : 48.0 KHz\nBit depth                                : 16 bits\nCompression mode                         : Lossy\nDelay relative to video                  : 1ms\nStream size                              : 183 MiB (15%)\nLanguage                                 : English\nDefault                                  : Yes\nForced                                   : No\n\nPlot\n\nAfter making their way through high school (twice), big changes are in store for officers Schmidt and Jenko when they go deep undercover at a local college. \n\nScreenshots\n &lt;a href=&quot;\nhttp://s24.postimg.org/ew7vfnulh/vlcsnap_2014_06_22_19h50m19s33.jpg&quot; rel=&quot;nofollow&quot; target=&quot;_NEW&quot;&gt;\nhttp://s24.postimg.org/ew7vfnulh/vlcsnap_2014_06_22_19h50m19s33.jpg&lt;/a&gt; &lt;a href=&quot;\nhttp://s24.postimg.org/iyyweqopx/vlcsnap_2014_06_22_19h52m29s59.jpg&quot; rel=&quot;nofollow&quot; target=&quot;_NEW&quot;&gt;\nhttp://s24.postimg.org/iyyweqopx/vlcsnap_2014_06_22_19h52m29s59.jpg&lt;/a&gt; &lt;a href=&quot;\nhttp://s24.postimg.org/5tje8muud/vlcsnap_2014_06_22_19h53m11s225.jpg&quot; rel=&quot;nofollow&quot; target=&quot;_NEW&quot;&gt;\nhttp://s24.postimg.org/5tje8muud/vlcsnap_2014_06_22_19h53m11s225.jpg&lt;/a&gt; &lt;a href=&quot;\nhttp://s24.postimg.org/foajeuysl/vlcsnap_2014_06_22_19h55m21s1.jpg&quot; rel=&quot;nofollow&quot; target=&quot;_NEW&quot;&gt;\nhttp://s24.postimg.org/foajeuysl/vlcsnap_2014_06_22_19h55m21s1.jpg&lt;/a&gt; &lt;a href=&quot;\nhttp://s24.postimg.org/msscnw61x/vlcsnap_2014_06_22_19h56m42s252.jpg&quot; rel=&quot;nofollow&quot; target=&quot;_NEW&quot;&gt;\nhttp://s24.postimg.org/msscnw61x/vlcsnap_2014_06_22_19h56m42s252.jpg&lt;/a&gt; &lt;a href=&quot;\nhttp://s24.postimg.org/ousu25411/vlcsnap_2014_06_22_20h01m21s247.jpg&quot; rel=&quot;nofollow&quot; target=&quot;_NEW&quot;&gt;\nhttp://s24.postimg.org/ousu25411/vlcsnap_2014_06_22_20h01m21s247.jpg&lt;/a&gt; &lt;a href=&quot;\nhttp://s24.postimg.org/mwm645bj9/vlcsnap_2014_06_22_20h03m00s202.jpg&quot; rel=&quot;nofollow&quot; target=&quot;_NEW&quot;&gt;\nhttp://s24.postimg.org/mwm645bj9/vlcsnap_2014_06_22_20h03m00s202.jpg&lt;/a&gt;\n","torrent":{"xt":"urn:btih:ad8c443c7fae3ced925bfc9133f9d7b52112fcab","amp;dn":"22+Jump+Street+2014+CAM+NEW+AUDIO+x264+AC3-MiLLENiUM","amp;tr":["udp%3A%2F%2Ftracker.openbittorrent.com%3A80","udp%3A%2F%2Fopen.demonii.com%3A1337","udp%3A%2F%2Ftracker.coppersurfer.tk%3A6969","udp%3A%2F%2Fexodus.desync.com%3A6969"],"infoHash":"ad8c443c7fae3ced925bfc9133f9d7b52112fcab","infoHashBuffer":{"type":"Buffer","data":[173,140,68,60,127,174,60,237,146,91,252,145,51,249,215,181,33,18,252,171]},"announce":[],"urlList":[]}}